<svg xmlns="http://www.w3.org/2000/svg" viewBox="0 0 14 14"><path d="M6.73231,8.38315A2.087,2.087,0,0,0,8.8211,6.28743l.007-4.19164a2.09579,2.09579,0,1,0-4.19158,0V6.28743A2.093,2.093,0,0,0,6.73231,8.38315Z"/><path d="M11.02851,5.69341a.594.594,0,0,0-.594.59395l.00019.00082A3.62494,3.62494,0,0,1,6.73231,9.85024,3.62489,3.62489,0,0,1,3.02987,6.28837l.00019-.001a.594.594,0,0,0-1.188,0A4.8788,4.8788,0,0,0,6.03367,10.982v2.29142a.69861.69861,0,0,0,1.39721,0V10.982a4.86752,4.86752,0,0,0,4.19158-4.69459A.594.594,0,0,0,11.02851,5.69341Z"/></svg>