<svg xmlns="http://www.w3.org/2000/svg" viewBox="0 0 14 14"><path d="M1.23374,2.62913a.70017.70017,0,0,0-.70019.70019v7.3125a.7002.7002,0,1,0,1.40039,0V3.32932A.70018.70018,0,0,0,1.23374,2.62913Z"/><path d="M4.16538.15452a.70018.70018,0,0,0-.70019.70019V13.11643a.7002.7002,0,1,0,1.40039,0V.85471A.70018.70018,0,0,0,4.16538.15452Z"/><path d="M7.098,1.39182a.70019.70019,0,0,0-.7002.7002v9.80566a.7002.7002,0,0,0,1.4004,0V2.092A.70019.70019,0,0,0,7.098,1.39182Z"/><path d="M10.03062.15452a.70018.70018,0,0,0-.7002.70019V13.11643a.7002.7002,0,1,0,1.40039,0V.85471A.70018.70018,0,0,0,10.03062.15452Z"/><path d="M12.96226,2.62913a.70018.70018,0,0,0-.7002.70019v7.3125a.7002.7002,0,1,0,1.40039,0V3.32932A.70017.70017,0,0,0,12.96226,2.62913Z"/></svg>